<svg width="152" height="139" viewBox="0 0 152 139" fill="none" xmlns="http://www.w3.org/2000/svg">
<path d="M33.7568 97.4232L36.0778 109.101C38.3146 120.341 39.4414 125.962 44.1422 129.3C48.8513 132.639 55.6543 132.639 69.2604 132.639H82.3451C95.9511 132.639 102.763 132.639 107.463 129.3C112.164 125.962 113.291 120.341 115.528 109.101L117.849 97.4232" stroke="#240164" stroke-width="11" stroke-linecap="round" stroke-linejoin="round"/>
<path d="M88.416 16.4279C92.6206 9.38482 101.03 5.86329 109.439 5.86329" stroke="#240164" stroke-width="11" stroke-linecap="round"/>
<path d="M75.8018 41.0787C85.0903 41.0787 92.6201 34.7721 92.6201 26.9925C92.6201 19.213 85.0903 12.9064 75.8018 12.9064C66.5132 12.9064 58.9834 19.213 58.9834 26.9925C58.9834 34.7721 66.5132 41.0787 75.8018 41.0787Z" stroke="#240164" stroke-width="11" stroke-linecap="round" stroke-linejoin="round"/>
<path d="M36.3862 44.5697C40.3564 38.6638 46.2621 33.7092 53.4833 30.3123V34.5222C47.7285 37.9498 43.0453 42.708 40.0785 48.4059L40.0785 48.406C39.9797 48.5956 39.7383 48.9038 39.2412 49.1836C38.7419 49.4646 38.0799 49.6583 37.3385 49.6729L37.3353 49.673C33.3371 49.7546 29.385 50.6196 25.7894 52.2314C22.1938 53.8432 19.0076 56.1794 16.5416 59.12C14.0706 62.0665 12.3928 65.5405 11.7398 69.2796C11.0857 73.0246 11.4958 76.8358 12.9057 80.3776C14.3118 83.9098 16.6474 87.0169 19.6288 89.4967C22.6071 91.9738 26.1688 93.7771 30.0017 94.8226C33.8353 95.8683 37.8873 96.1424 41.8479 95.6336C45.8081 95.1248 49.623 93.8397 52.9815 91.8346L52.9887 91.8303C53.4674 91.5435 54.1158 91.3341 54.8569 91.3018C55.5977 91.2695 56.2934 91.4205 56.846 91.6836L56.8477 91.6844C62.4775 94.3626 68.9362 95.8802 75.8017 95.8802C82.6672 95.8802 89.1259 94.3626 94.7557 91.6844L94.7574 91.6836C95.31 91.4205 96.0057 91.2695 96.7465 91.3018C97.4876 91.3341 98.1361 91.5435 98.6147 91.8303L98.6219 91.8346C101.98 93.8397 105.795 95.1248 109.755 95.6336C113.716 96.1424 117.768 95.8683 121.602 94.8226C125.435 93.7771 128.996 91.9738 131.975 89.4967C134.956 87.0169 137.292 83.9099 138.698 80.3776L133.588 78.3435L138.698 80.3776C140.108 76.8358 140.518 73.0246 139.864 69.2795C139.211 65.5406 137.533 62.0665 135.062 59.12L130.848 62.6541L135.062 59.12C132.596 56.1794 129.41 53.8432 125.814 52.2314C122.218 50.6196 118.266 49.7546 114.268 49.673L114.265 49.6729C113.524 49.6583 112.862 49.4646 112.362 49.1836C111.865 48.9038 111.624 48.5956 111.525 48.406L111.525 48.4059C108.558 42.708 103.875 37.9498 98.1201 34.5222V30.3113C105.341 33.7067 111.247 38.6596 115.218 44.5638L116.592 46.607L119.032 46.9428C123.777 47.5962 128.253 49.0993 132.153 51.3116C136.053 53.5235 139.251 56.3721 141.584 59.608C143.912 62.8385 145.329 66.3844 145.808 69.9959C146.287 73.6037 145.831 77.2698 144.441 80.7636C143.048 84.2645 140.731 87.555 137.572 90.3722C134.41 93.1916 130.496 95.4546 126.071 96.9537C121.647 98.4526 116.859 99.1376 112.048 98.9441C107.237 98.7506 102.562 97.685 98.3519 95.8476L96.3252 94.9631L94.2503 95.7276C88.4623 97.8604 82.1778 98.9697 75.8046 98.9663H75.8005C69.4268 98.9677 63.1423 97.8562 57.355 95.7213L55.2792 94.9556L53.2515 95.8406C49.0425 97.6775 44.3691 98.7429 39.5595 98.9365C34.7499 99.13 29.9633 98.4454 25.5402 96.947C21.1167 95.4485 17.203 93.1864 14.0423 90.3679L10.3818 94.4729L14.0423 90.3679C10.8841 87.5518 8.56747 84.2623 7.17476 80.7625C5.78488 77.2699 5.32826 73.6049 5.80671 69.9982C6.28563 66.3879 7.70122 62.843 10.0285 59.6133C12.3598 56.3782 15.5571 53.5302 19.4551 51.3185C23.3537 49.1066 27.8281 47.6035 32.5724 46.9498L35.0122 46.6136L36.3862 44.5697Z" fill="#240164" stroke="#240164" stroke-width="11"/>
</svg>
