<svg width="157" height="142" viewBox="0 0 157 142" fill="none" xmlns="http://www.w3.org/2000/svg">
<path d="M0.90918 90.185C0.90918 78.5945 6.28988 69.3178 17.0513 62.3549C27.8127 55.3921 40.1705 51.9085 54.1249 51.9043C68.0792 51.9 80.4371 55.3836 91.1985 62.3549C101.96 69.3263 107.341 78.603 107.341 90.185H0.90918ZM0.90918 115.706V102.945H107.341V115.706H0.90918ZM8.0046 141.226C5.99423 141.226 4.31025 140.614 2.95266 139.389C1.59507 138.164 0.91391 136.649 0.90918 134.846V128.466H107.341V134.846C107.341 136.654 106.659 138.17 105.297 139.395C103.935 140.62 102.251 141.23 100.245 141.226H8.0046ZM121.531 141.226V90.185C121.531 78.0628 116.919 67.5888 107.695 58.7629C98.4713 49.9371 87.1777 44.0355 73.8147 41.0581L71.8634 26.3838H107.341V0.863289H121.531V26.3838H157.009L145.478 129.742C145.124 133.038 143.615 135.777 140.952 137.959C138.288 140.141 135.126 141.23 131.465 141.226H121.531Z" fill="#240164"/>
</svg>
