<svg width="158" height="122" viewBox="0 0 158 122" fill="none" xmlns="http://www.w3.org/2000/svg">
<path d="M52.7793 5.22147C54.8121 7.01735 56.2743 9.15347 57.0501 11.4606C57.8258 13.7676 57.8939 16.1823 57.2488 18.5132C61.9363 16.6908 67.0308 15.5723 72.2606 15.2175C80.3475 14.6731 88.462 15.9902 95.5775 19.0019C114.088 26.8333 129.326 38.562 139.513 52.8187C142.214 56.58 143.888 60.7277 144.431 65.0063C144.974 69.285 144.376 73.6041 142.672 77.6978C145.79 78.2481 148.683 79.3844 151.092 81.0055L151.113 81.0177C159.811 86.9062 160.231 97.1648 152.14 103.352C149.011 105.763 144.93 107.302 140.54 107.726C140.016 111.01 138.129 114.152 134.86 116.676C132.934 118.163 130.632 119.329 128.097 120.1C125.562 120.872 122.848 121.233 120.124 121.161C117.4 121.089 114.724 120.585 112.264 119.682C109.803 118.778 107.61 117.494 105.821 115.909V115.901C103.712 114.037 102.235 111.798 101.525 109.386C96.2165 110.692 90.6191 111.153 85.073 110.739C79.5269 110.325 74.148 109.046 69.2635 106.979C50.7848 99.1302 35.5709 87.4047 25.386 73.1622C21.2649 67.4211 19.5723 60.8314 20.5445 54.3131C21.0982 50.5673 22.5198 46.9285 24.7415 43.5699C21.7179 44.0659 18.586 44.0125 15.5939 43.4138C12.6018 42.8152 9.8316 41.6877 7.50276 40.1208L7.4818 40.1086C5.44515 38.727 3.79739 37.0384 2.64018 35.1469C1.48297 33.2554 0.840864 31.2012 0.75347 29.111C0.666076 27.0209 1.13525 24.9391 2.13205 22.9941C3.12885 21.0491 4.63213 19.2822 6.54913 17.8023C9.65533 15.3732 13.7367 13.8259 18.1289 13.4122C18.6529 10.1569 20.5287 6.98642 23.8036 4.46217L23.8193 4.45005C25.7461 2.98 28.042 1.82873 30.5665 1.06681C33.0909 0.30488 35.7906 -0.0516535 38.5 0.0190593C41.2095 0.0897721 43.8718 0.586241 46.3235 1.47804C48.7753 2.36984 50.965 3.63817 52.7584 5.20531L52.7793 5.22147ZM102.295 100.477C102.801 99.4265 103.453 98.4195 104.249 97.4556C100.925 99.3628 96.8868 100.386 92.7428 100.372C87.5554 100.372 82.7349 98.8368 79.0671 96.0097C75.3992 93.1825 73.4081 89.4668 73.4081 85.4684C73.4081 81.47 75.3992 77.7543 79.0671 74.9271L97.9301 60.3875C101.598 57.5603 106.418 56.0256 111.606 56.0256C116.741 56.0256 121.614 57.6007 125.282 60.3875C128.949 63.2146 130.94 66.9303 130.94 70.9287C130.94 74.18 129.63 77.2414 127.168 79.7939C128.415 79.176 129.746 78.6711 131.119 78.2794C133.229 74.8992 134.26 71.1786 134.124 67.4287C133.988 63.6788 132.69 60.0084 130.338 56.7243C121.112 43.8061 107.307 33.1782 90.5368 26.0819C85.2375 23.8399 79.1944 22.8602 73.1724 23.2668C66.0173 23.7412 59.3066 26.1402 54.215 30.0439L39.7009 41.2718C35.0217 44.8761 31.9898 49.5555 31.0626 54.6041C30.1354 59.6528 31.3632 64.797 34.5608 69.2607C43.7868 82.1653 57.5689 92.79 74.3094 99.9031C78.5805 101.705 83.3472 102.698 88.2148 102.797C93.0824 102.897 97.9108 102.102 102.3 100.477M28.4565 15.2094V15.2902C28.315 18.5374 24.9196 21.3484 20.4397 21.3726C18.023 21.3928 15.7143 22.1476 14.0158 23.4728L13.9843 23.5011C10.1855 26.4252 10.3165 31.2394 14.4192 34.0504C16.1297 35.1854 18.3093 35.813 20.5662 35.8204C22.8232 35.8278 25.0096 35.2145 26.7326 34.0908C27.8981 33.2902 29.3449 32.7733 30.8908 32.6051C32.4367 32.4369 34.0126 32.625 35.4201 33.1457L43.7146 26.724C43.0431 25.6402 42.8018 24.4277 43.0208 23.2386C43.2399 22.0495 43.9096 20.9367 44.9459 20.0398C46.4038 18.7118 47.1994 17.0265 47.1898 15.2868C47.1802 13.5471 46.366 11.8671 44.8935 10.5486C44.0454 9.80737 43.0101 9.20717 41.8509 8.78472C40.6917 8.36228 39.433 8.12646 38.1515 8.09168C36.8701 8.05691 35.5929 8.2239 34.3981 8.58246C33.2032 8.94102 32.1157 9.48361 31.2021 10.1771C29.3839 11.5826 28.4774 13.3879 28.446 15.2094M104.15 74.1073L96.8664 79.7212C96.84 79.7411 96.8194 79.765 96.8059 79.7915C96.7923 79.8179 96.7862 79.8463 96.7878 79.8747C96.7878 79.9447 96.814 79.9958 96.8664 80.0282L113.581 92.9119C114.951 93.964 115.748 95.3789 115.812 96.8684C115.875 98.358 115.199 99.8101 113.922 100.929C110.731 103.772 110.71 107.928 113.723 110.606C114.568 111.355 115.604 111.961 116.766 112.388C117.929 112.815 119.193 113.052 120.48 113.086C121.767 113.12 123.049 112.949 124.246 112.584C125.444 112.219 126.531 111.668 127.44 110.965C129.184 109.64 130.176 107.837 130.202 105.949C130.228 102.492 133.88 99.8748 138.098 99.7698L138.15 99.7658H138.203C140.561 99.7375 142.913 99.0388 144.731 97.6373L144.747 97.6252C148.483 94.7698 148.383 89.9353 144.207 87.0961C140.733 84.7778 135.352 84.798 131.664 87.2576C130.211 88.2417 128.327 88.7619 126.395 88.7124C124.462 88.6629 122.627 88.0473 121.263 86.991L104.548 74.1073C104.522 74.0869 104.491 74.071 104.457 74.0606C104.422 74.0502 104.386 74.0454 104.349 74.0467C104.313 74.046 104.277 74.051 104.244 74.0614C104.21 74.0718 104.18 74.0874 104.155 74.1073" fill="#240164"/>
</svg>
