<svg width="164" height="121" viewBox="0 0 164 121" fill="none" xmlns="http://www.w3.org/2000/svg">
<path d="M17.3997 91.044L17.562 90.8953V90.6752V33.5899V33.0899H17.062H9.41138V27.374H17.062H17.562V26.874V20.158V19.658H17.062H9.41138V13.9421H17.062H17.562V13.4421V6.72619V6.22619H17.062H9.41138V0.510269H57.8028C61.766 0.708663 65.3268 2.07914 68.4191 4.62718C71.5116 7.17526 73.23 10.2873 73.6201 13.5024L73.6735 13.9421H74.1165H155.123V19.658H74.1165H73.6705L73.6198 20.1012C73.229 23.5144 71.5112 26.566 68.4009 29.3917C65.3198 32.1908 61.7871 33.4155 57.8563 33.0916L57.8358 33.0899H57.8152H41.5139H41.0139V33.5899V80.9371V81.4371H41.5139C41.9752 81.4371 42.6756 81.3613 43.6136 81.0803C43.9787 80.9709 44.3161 80.9683 44.6356 80.9984C44.7694 81.011 44.8937 81.0285 45.0215 81.0465C45.0506 81.0506 45.0798 81.0547 45.1093 81.0588C45.2592 81.0796 45.4283 81.1013 45.5893 81.1013C50.0873 81.1013 55.2507 82.0284 61.0859 83.8982L61.4809 84.0247L61.6783 83.6599C64.9647 77.5835 70.5915 72.1381 78.6807 67.6057C86.7629 63.0772 94.8301 60.9536 102.888 60.9536C115.257 60.9536 125.737 64.4814 134.276 71.5178C142.809 78.5484 146.972 87.1411 146.972 97.3911V99.2044C146.972 99.5918 146.918 99.887 146.864 100.111C146.852 100.162 146.84 100.207 146.829 100.249H10.7504C11.8574 97.2101 14.0176 94.1404 17.3997 91.044ZM33.5085 82.6244L33.8633 82.5167V82.146V33.5899V33.0899H33.3633H25.2127H24.7127V33.5899V85.3025V86.0492L25.4031 85.7648C29.487 84.0823 31.9882 83.086 33.5085 82.6244ZM57.8152 27.374H58.3152V26.874V20.158V19.658H57.8152H41.5139H41.0139V20.158V26.874V27.374H41.5139H57.8152ZM58.3152 6.72619V6.22619H57.8152H41.5139H41.0139V6.72619V13.4421V13.9421H41.5139H57.8152H58.3152V13.4421V6.72619ZM25.2127 6.22619H24.7127V6.72619V13.4421V13.9421H25.2127H33.3633H33.8633V13.4421V6.72619V6.22619H33.3633H25.2127ZM25.2127 19.658H24.7127V20.158V26.874V27.374H25.2127H33.3633H33.8633V26.874V20.158V19.658H33.3633H25.2127ZM17.2415 120.397L2.15383 107.965H162.38L147.293 120.397H17.2415Z" fill="#240164" stroke="#240164"/>
</svg>
