<svg width="148" height="119" viewBox="0 0 148 119" fill="none" xmlns="http://www.w3.org/2000/svg">
<mask id="path-1-inside-1_144_1246" fill="white">
<path d="M73.9222 0.010272C65.7435 0.00751498 57.7561 2.006 51.0148 5.7418C44.2736 9.47761 39.0955 14.775 36.1646 20.9344C33.1156 20.2257 30.0247 19.64 26.9034 19.1794C20.484 18.2415 13.9714 17.781 7.44762 17.8038L6.1834 17.8275L5.8306 17.8394C4.45276 17.8838 3.14396 18.3377 2.1561 19.1138C1.16824 19.8899 0.571134 20.9333 0.479699 22.0432L0.472349 22.1618L0.45765 22.4523C0.44295 22.6895 0.433148 23.0274 0.428248 23.4662C0.413548 24.3318 0.420899 25.5711 0.48705 27.0949C0.634053 30.1425 1.05301 34.3759 2.13348 39.1608C3.1184 43.5187 4.69132 48.44 7.20507 53.3731H5.9335C4.47147 53.3731 3.06931 53.8416 2.0355 54.6755C1.00169 55.5095 0.420898 56.6406 0.420898 57.82V59.3023C0.420898 92.0492 33.3274 118.594 73.9222 118.594C114.517 118.594 147.424 92.0492 147.424 59.3023V57.82C147.424 56.6406 146.843 55.5095 145.809 54.6755C144.775 53.8416 143.373 53.3731 141.911 53.3731H140.051L140.066 52.6319C140.062 46.2136 137.412 39.9786 132.534 34.908C127.656 29.8374 120.827 26.2191 113.12 24.6224C110.913 17.5852 105.859 11.3432 98.7573 6.88508C91.6558 2.42697 82.9134 0.00762943 73.9149 0.010272M46.5283 23.9642C48.6802 19.5356 52.4329 15.7311 57.2991 13.0446C62.1653 10.3581 67.9203 8.9138 73.817 8.89909C79.7136 8.88439 85.4796 10.3 90.3663 12.9622C95.253 15.6243 99.0347 19.41 101.221 23.8279C94.9005 24.2576 88.8346 26.0315 83.6414 28.9688C78.4482 31.9061 74.3133 35.9016 71.6584 40.5482C69.6764 38.1791 67.4196 35.9674 64.9183 33.9431C59.413 29.5021 53.0111 26.2944 46.5283 23.9642ZM129.048 52.6319C129.048 52.8809 129.041 53.128 129.026 53.3731H79.5671L79.4348 53.0766V52.6319C79.4348 47.3247 82.0484 42.2348 86.7005 38.482C91.3527 34.7292 97.6624 32.6209 104.242 32.6209C110.821 32.6209 117.13 34.7292 121.782 38.482C126.435 42.2348 129.048 47.3247 129.048 52.6319ZM57.1272 40.234C61.8533 44.0405 65.2785 48.6238 67.7481 53.3731H52.3128L39.2296 42.8191C38.7249 42.3822 38.1163 42.0318 37.4401 41.7887C36.7639 41.5457 36.0339 41.415 35.2938 41.4044C34.5536 41.3939 33.8184 41.5037 33.1319 41.7274C32.4455 41.951 31.822 42.2839 31.2985 42.7062C30.7751 43.1285 30.3624 43.6315 30.0851 44.1852C29.8079 44.7389 29.6717 45.332 29.6848 45.9291C29.6978 46.5262 29.8598 47.115 30.1611 47.6605C30.4624 48.206 30.8968 48.6969 31.4385 49.104L36.7305 53.3731H19.3107C16.0767 48.1791 14.1362 42.6234 12.9896 37.5599C12.1851 33.9913 11.6939 30.3813 11.5196 26.7569V26.745C14.9007 26.8458 19.6194 27.1482 24.9189 27.9309C35.6501 29.514 48.138 32.9707 57.1272 40.234ZM20.9131 85.9837H126.931C121.317 93.2411 113.505 99.2263 104.231 103.375C94.9575 107.525 84.527 109.701 73.9222 109.7C63.3175 109.701 52.887 107.525 43.6131 103.375C34.3393 99.2263 26.5273 93.2411 20.9131 85.9837ZM11.549 62.2669H136.295C135.93 67.338 134.617 72.3355 132.4 77.0899H15.4446C13.2274 72.3355 11.9141 67.338 11.549 62.2669Z"/>
</mask>
<path d="M73.9222 0.010272C65.7435 0.00751498 57.7561 2.006 51.0148 5.7418C44.2736 9.47761 39.0955 14.775 36.1646 20.9344C33.1156 20.2257 30.0247 19.64 26.9034 19.1794C20.484 18.2415 13.9714 17.781 7.44762 17.8038L6.1834 17.8275L5.8306 17.8394C4.45276 17.8838 3.14396 18.3377 2.1561 19.1138C1.16824 19.8899 0.571134 20.9333 0.479699 22.0432L0.472349 22.1618L0.45765 22.4523C0.44295 22.6895 0.433148 23.0274 0.428248 23.4662C0.413548 24.3318 0.420899 25.5711 0.48705 27.0949C0.634053 30.1425 1.05301 34.3759 2.13348 39.1608C3.1184 43.5187 4.69132 48.44 7.20507 53.3731H5.9335C4.47147 53.3731 3.06931 53.8416 2.0355 54.6755C1.00169 55.5095 0.420898 56.6406 0.420898 57.82V59.3023C0.420898 92.0492 33.3274 118.594 73.9222 118.594C114.517 118.594 147.424 92.0492 147.424 59.3023V57.82C147.424 56.6406 146.843 55.5095 145.809 54.6755C144.775 53.8416 143.373 53.3731 141.911 53.3731H140.051L140.066 52.6319C140.062 46.2136 137.412 39.9786 132.534 34.908C127.656 29.8374 120.827 26.2191 113.12 24.6224C110.913 17.5852 105.859 11.3432 98.7573 6.88508C91.6558 2.42697 82.9134 0.00762943 73.9149 0.010272M46.5283 23.9642C48.6802 19.5356 52.4329 15.7311 57.2991 13.0446C62.1653 10.3581 67.9203 8.9138 73.817 8.89909C79.7136 8.88439 85.4796 10.3 90.3663 12.9622C95.253 15.6243 99.0347 19.41 101.221 23.8279C94.9005 24.2576 88.8346 26.0315 83.6414 28.9688C78.4482 31.9061 74.3133 35.9016 71.6584 40.5482C69.6764 38.1791 67.4196 35.9674 64.9183 33.9431C59.413 29.5021 53.0111 26.2944 46.5283 23.9642ZM129.048 52.6319C129.048 52.8809 129.041 53.128 129.026 53.3731H79.5671L79.4348 53.0766V52.6319C79.4348 47.3247 82.0484 42.2348 86.7005 38.482C91.3527 34.7292 97.6624 32.6209 104.242 32.6209C110.821 32.6209 117.13 34.7292 121.782 38.482C126.435 42.2348 129.048 47.3247 129.048 52.6319ZM57.1272 40.234C61.8533 44.0405 65.2785 48.6238 67.7481 53.3731H52.3128L39.2296 42.8191C38.7249 42.3822 38.1163 42.0318 37.4401 41.7887C36.7639 41.5457 36.0339 41.415 35.2938 41.4044C34.5536 41.3939 33.8184 41.5037 33.1319 41.7274C32.4455 41.951 31.822 42.2839 31.2985 42.7062C30.7751 43.1285 30.3624 43.6315 30.0851 44.1852C29.8079 44.7389 29.6717 45.332 29.6848 45.9291C29.6978 46.5262 29.8598 47.115 30.1611 47.6605C30.4624 48.206 30.8968 48.6969 31.4385 49.104L36.7305 53.3731H19.3107C16.0767 48.1791 14.1362 42.6234 12.9896 37.5599C12.1851 33.9913 11.6939 30.3813 11.5196 26.7569V26.745C14.9007 26.8458 19.6194 27.1482 24.9189 27.9309C35.6501 29.514 48.138 32.9707 57.1272 40.234ZM20.9131 85.9837H126.931C121.317 93.2411 113.505 99.2263 104.231 103.375C94.9575 107.525 84.527 109.701 73.9222 109.7C63.3175 109.701 52.887 107.525 43.6131 103.375C34.3393 99.2263 26.5273 93.2411 20.9131 85.9837ZM11.549 62.2669H136.295C135.93 67.338 134.617 72.3355 132.4 77.0899H15.4446C13.2274 72.3355 11.9141 67.338 11.549 62.2669Z" fill="#240164"/>
<path d="M5.72068 18.3448L5.85298 18.3389L5.80821 17.3399L5.67591 17.3458L5.72068 18.3448ZM36.1646 20.9344L35.9382 21.9085L36.7219 22.0906L37.0676 21.3641L36.1646 20.9344ZM26.9034 19.1794L27.0494 18.1901L27.048 18.1899L26.9034 19.1794ZM7.44762 17.8038L7.44413 16.8038L7.4365 16.8038L7.42887 16.804L7.44762 17.8038ZM6.1834 17.8275L6.16464 16.8277L6.15722 16.8278L6.14981 16.8281L6.1834 17.8275ZM5.8306 17.8394L5.86279 18.8389L5.86419 18.8388L5.8306 17.8394ZM0.479699 22.0432L-0.516925 21.9611L-0.517758 21.9712L-0.518386 21.9813L0.479699 22.0432ZM0.472349 22.1618L-0.5258 22.0999L-0.526373 22.1112L0.472349 22.1618ZM0.45765 22.4523L1.4558 22.5142L1.45637 22.5028L0.45765 22.4523ZM0.428248 23.4662L1.42812 23.4832L1.42819 23.4774L0.428248 23.4662ZM0.48705 27.0949L-0.512021 27.1382L-0.511789 27.143L0.48705 27.0949ZM2.13348 39.1608L1.15804 39.381L1.15808 39.3812L2.13348 39.1608ZM7.20507 53.3731V54.3731H8.83698L8.09606 52.9191L7.20507 53.3731ZM140.051 53.3731L139.052 53.3532L139.031 54.3731H140.051V53.3731ZM140.066 52.6319L141.066 52.6518L141.066 52.6415L141.066 52.6313L140.066 52.6319ZM113.12 24.6224L112.166 24.9216L112.342 25.4824L112.918 25.6016L113.12 24.6224ZM46.5283 23.9642L45.6288 23.5272L45.1422 24.5287L46.19 24.9053L46.5283 23.9642ZM101.221 23.8279L101.288 24.8256L102.78 24.7242L102.117 23.3844L101.221 23.8279ZM71.6584 40.5482L70.8914 41.1898L71.8136 42.2922L72.5266 41.0443L71.6584 40.5482ZM64.9183 33.9431L65.5474 33.1658L65.5462 33.1648L64.9183 33.9431ZM129.048 52.6319H130.048H129.048ZM129.026 53.3731V54.3731H129.968L130.024 53.4329L129.026 53.3731ZM79.5671 53.3731L78.6539 53.7806L78.9183 54.3731H79.5671V53.3731ZM79.4348 53.0766H78.4348V53.2896L78.5216 53.4841L79.4348 53.0766ZM104.242 32.6209V31.6209V32.6209ZM57.1272 40.234L56.4987 41.0118L56.4999 41.0128L57.1272 40.234ZM67.7481 53.3731V54.3731H69.3952L68.6353 52.9117L67.7481 53.3731ZM52.3128 53.3731L51.685 54.1514L51.9598 54.3731H52.3128V53.3731ZM39.2296 42.8191L38.5751 43.5751L38.5882 43.5865L38.6017 43.5974L39.2296 42.8191ZM31.4385 49.104L32.0663 48.3257L32.053 48.315L32.0393 48.3047L31.4385 49.104ZM36.7305 53.3731V54.3731H39.5629L37.3584 52.5947L36.7305 53.3731ZM19.3107 53.3731L18.4618 53.9016L18.7554 54.3731H19.3107V53.3731ZM12.9896 37.5599L12.0141 37.7798L12.0143 37.7808L12.9896 37.5599ZM11.5196 26.7569H10.5196V26.7809L10.5208 26.8049L11.5196 26.7569ZM11.5196 26.745L11.5494 25.7455L10.5196 25.7148V26.745H11.5196ZM24.9189 27.9309L24.7728 28.9201L24.7729 28.9202L24.9189 27.9309ZM20.9131 85.9837V84.9837H18.8752L20.1221 86.5955L20.9131 85.9837ZM126.931 85.9837L127.722 86.5955L128.969 84.9837H126.931V85.9837ZM73.9222 109.7L73.9223 108.7H73.9221L73.9222 109.7ZM11.549 62.2669V61.2669H10.4744L10.5516 62.3387L11.549 62.2669ZM136.295 62.2669L137.293 62.3387L137.37 61.2669H136.295V62.2669ZM132.4 77.0899V78.0899H133.037L133.306 77.5125L132.4 77.0899ZM15.4446 77.0899L14.5383 77.5125L14.8075 78.0899H15.4446V77.0899ZM73.9226 -0.989728C65.5849 -0.992539 57.4289 1.04402 50.5301 4.86713L51.4995 6.61647C58.0832 2.96798 65.9021 1.00757 73.9219 1.01027L73.9226 -0.989728ZM50.5301 4.86713C43.6311 8.69035 38.2936 14.133 35.2616 20.5047L37.0676 21.3641C39.8975 15.417 44.916 10.2649 51.4995 6.61647L50.5301 4.86713ZM36.391 19.9604C33.3152 19.2455 30.1975 18.6546 27.0494 18.1901L26.7574 20.1687C29.8519 20.6253 32.916 21.206 35.9382 21.9085L36.391 19.9604ZM27.048 18.1899C20.5793 17.2448 14.0172 16.7808 7.44413 16.8038L7.45112 18.8038C13.9256 18.7812 20.3887 19.2382 26.7589 20.1689L27.048 18.1899ZM7.42887 16.804L6.16464 16.8277L6.20216 18.8273L7.46638 18.8036L7.42887 16.804ZM6.14981 16.8281L5.797 16.8399L5.86419 18.8388L6.21699 18.827L6.14981 16.8281ZM5.7984 16.8399C4.22949 16.8904 2.7101 17.4068 1.53832 18.3274L2.77388 19.9001C3.57783 19.2685 4.67603 18.8771 5.86279 18.8389L5.7984 16.8399ZM1.53832 18.3274C0.362646 19.2511 -0.399612 20.5371 -0.516925 21.9611L1.47632 22.1253C1.54188 21.3295 1.97384 20.5287 2.77388 19.9001L1.53832 18.3274ZM-0.518386 21.9813L-0.525736 22.0999L1.47043 22.2236L1.47778 22.105L-0.518386 21.9813ZM-0.526373 22.1112L-0.541073 22.4018L1.45637 22.5028L1.47107 22.2123L-0.526373 22.1112ZM-0.540435 22.3904C-0.556711 22.653 -0.56673 23.0109 -0.57169 23.455L1.42819 23.4774C1.43303 23.0439 1.44261 22.7259 1.45573 22.5142L-0.540435 22.3904ZM-0.571608 23.4492C-0.586658 24.3355 -0.57901 25.5948 -0.512009 27.1382L1.48611 27.0515C1.42081 25.5473 1.41375 24.3282 1.4281 23.4832L-0.571608 23.4492ZM-0.511789 27.143C-0.362609 30.2358 0.0622527 34.5283 1.15804 39.381L3.10892 38.9405C2.04377 34.2235 1.63071 30.0491 1.48589 27.0467L-0.511789 27.143ZM1.15808 39.3812C2.15742 43.803 3.75534 48.8057 6.31408 53.8271L8.09606 52.9191C5.62731 48.0743 4.07937 43.2345 3.10888 38.9403L1.15808 39.3812ZM7.20507 52.3731H5.9335V54.3731H7.20507V52.3731ZM5.9335 52.3731C4.26751 52.3731 2.63745 52.9052 1.40764 53.8972L2.66336 55.4539C3.50117 54.778 4.67542 54.3731 5.9335 54.3731V52.3731ZM1.40764 53.8972C0.172097 54.8939 -0.579102 56.2975 -0.579102 57.82H1.4209C1.4209 56.9836 1.83128 56.1251 2.66336 55.4539L1.40764 53.8972ZM-0.579102 57.82V59.3023H1.4209V57.82H-0.579102ZM-0.579102 59.3023C-0.579102 92.7914 32.9865 119.594 73.9222 119.594V117.594C33.6684 117.594 1.4209 91.307 1.4209 59.3023H-0.579102ZM73.9222 119.594C114.858 119.594 148.424 92.7914 148.424 59.3023H146.424C146.424 91.307 114.176 117.594 73.9222 117.594V119.594ZM148.424 59.3023V57.82H146.424V59.3023H148.424ZM148.424 57.82C148.424 56.2975 147.672 54.8939 146.437 53.8972L145.181 55.4539C146.013 56.1251 146.424 56.9836 146.424 57.82H148.424ZM146.437 53.8972C145.207 52.9052 143.577 52.3731 141.911 52.3731V54.3731C143.169 54.3731 144.343 54.778 145.181 55.4539L146.437 53.8972ZM141.911 52.3731H140.051V54.3731H141.911V52.3731ZM141.051 53.3929L141.066 52.6518L139.066 52.6121L139.052 53.3532L141.051 53.3929ZM141.066 52.6313C141.062 45.9287 138.293 39.4518 133.255 34.2147L131.814 35.6013C136.531 40.5053 139.062 46.4985 139.066 52.6326L141.066 52.6313ZM133.255 34.2147C128.221 28.9818 121.203 25.2757 113.323 23.6432L112.918 25.6016C120.451 27.1624 127.092 30.6929 131.814 35.6013L133.255 34.2147ZM114.075 24.3231C111.787 17.0279 106.563 10.6043 99.2889 6.03813L98.2256 7.73202C105.155 12.082 110.04 18.1424 112.166 24.9216L114.075 24.3231ZM99.2889 6.03813C92.0163 1.4726 83.0869 -0.992422 73.9146 -0.989728L73.9151 1.01027C82.7398 1.00768 91.2952 3.38134 98.2256 7.73202L99.2889 6.03813ZM47.4277 24.4013C49.4781 20.1816 53.0726 16.5202 57.7824 13.9201L56.8158 12.1692C51.7932 14.942 47.8823 18.8896 45.6288 23.5272L47.4277 24.4013ZM57.7824 13.9201C62.4924 11.3198 68.0804 9.9134 73.8195 9.89909L73.8145 7.8991C67.7602 7.91419 61.8382 9.39643 56.8158 12.1692L57.7824 13.9201ZM73.8195 9.89909C79.5585 9.88478 85.1575 11.2633 89.8879 13.8403L90.8447 12.084C85.8016 9.33668 79.8688 7.884 73.8145 7.8991L73.8195 9.89909ZM89.8879 13.8403C94.6181 16.4172 98.2412 20.0612 100.324 24.2713L102.117 23.3844C99.8283 18.7588 95.8879 14.8314 90.8447 12.084L89.8879 13.8403ZM101.153 22.8302C94.6928 23.2694 88.4805 25.083 83.1491 28.0984L84.1337 29.8392C89.1888 26.9801 95.1081 25.2458 101.288 24.8256L101.153 22.8302ZM83.1491 28.0984C77.8176 31.1138 73.5444 35.2317 70.7901 40.0521L72.5266 41.0443C75.0823 36.5715 79.0788 32.6983 84.1337 29.8392L83.1491 28.0984ZM72.4254 39.9066C70.4003 37.4858 68.0968 35.229 65.5474 33.1658L64.2892 34.7204C66.7423 36.7057 68.9526 38.8723 70.8914 41.1898L72.4254 39.9066ZM65.5462 33.1648C59.9315 28.6355 53.4229 25.3798 46.8665 23.0232L46.19 24.9053C52.5993 27.209 58.8946 30.3687 64.2904 34.7214L65.5462 33.1648ZM128.048 52.6319C128.048 52.8613 128.041 53.0883 128.028 53.3132L130.024 53.4329C130.04 53.1676 130.048 52.9006 130.048 52.6319H128.048ZM129.026 52.3731H79.5671V54.3731H129.026V52.3731ZM80.4803 52.9656L80.348 52.6691L78.5216 53.4841L78.6539 53.7806L80.4803 52.9656ZM80.4348 53.0766V52.6319H78.4348V53.0766H80.4348ZM80.4348 52.6319C80.4348 47.6677 82.878 42.8504 87.3284 39.2603L86.0727 37.7036C81.2188 41.6192 78.4348 46.9816 78.4348 52.6319H80.4348ZM87.3284 39.2603C91.7845 35.6656 97.8663 33.6209 104.242 33.6209V31.6209C97.4584 31.6209 90.9208 33.7927 86.0727 37.7036L87.3284 39.2603ZM104.242 33.6209C110.617 33.6209 116.698 35.6656 121.155 39.2603L122.41 37.7036C117.562 33.7927 111.025 31.6209 104.242 31.6209V33.6209ZM121.155 39.2603C125.605 42.8504 128.048 47.6677 128.048 52.6319H130.048C130.048 46.9816 127.264 41.6192 122.41 37.7036L121.155 39.2603ZM56.4999 41.0128C61.1021 44.7195 64.4446 49.1878 66.8609 53.8344L68.6353 52.9117C66.1123 48.0598 62.6045 43.3615 57.7544 39.4552L56.4999 41.0128ZM67.7481 52.3731H52.3128V54.3731H67.7481V52.3731ZM52.9407 52.5947L39.8575 42.0408L38.6017 43.5974L51.685 54.1514L52.9407 52.5947ZM39.8841 42.063C39.2794 41.5395 38.5616 41.1292 37.7784 40.8476L37.1019 42.7298C37.6711 42.9344 38.1704 43.2248 38.5751 43.5751L39.8841 42.063ZM37.7784 40.8476C36.995 40.5661 36.1553 40.4166 35.308 40.4045L35.2795 42.4043C35.9126 42.4133 36.5328 42.5252 37.1019 42.7298L37.7784 40.8476ZM35.308 40.4045C34.4607 40.3925 33.6158 40.518 32.8221 40.7766L33.4417 42.6782C34.0209 42.4895 34.6465 42.3953 35.2795 42.4043L35.308 40.4045ZM32.8221 40.7766C32.0286 41.0351 31.2955 41.4238 30.6707 41.9279L31.9264 43.4845C32.3484 43.1441 32.8624 42.867 33.4417 42.6782L32.8221 40.7766ZM30.6707 41.9279C30.0455 42.4322 29.5377 43.0451 29.191 43.7375L30.9793 44.6329C31.1871 44.2179 31.5046 43.8248 31.9264 43.4845L30.6707 41.9279ZM29.191 43.7375C28.8436 44.4312 28.6683 45.185 28.685 45.951L30.6845 45.9072C30.6752 45.479 30.7722 45.0466 30.9793 44.6329L29.191 43.7375ZM28.685 45.951C28.7018 46.7168 28.9098 47.4633 29.2858 48.144L31.0365 47.177C30.8099 46.7667 30.6939 46.3355 30.6845 45.9072L28.685 45.951ZM29.2858 48.144C29.6611 48.8234 30.1932 49.419 30.8376 49.9034L32.0393 48.3047C31.6005 47.9748 31.2638 47.5886 31.0365 47.177L29.2858 48.144ZM30.8106 49.8824L36.1027 54.1514L37.3584 52.5947L32.0663 48.3257L30.8106 49.8824ZM36.7305 52.3731H19.3107V54.3731H36.7305V52.3731ZM20.1596 52.8445C16.9986 47.7678 15.0935 42.3229 13.9649 37.339L12.0143 37.7808C13.179 42.924 15.1548 48.5904 18.4618 53.9016L20.1596 52.8445ZM13.9651 37.34C13.1733 33.8274 12.6899 30.2749 12.5184 26.7089L10.5208 26.8049C10.6979 30.4877 11.197 34.1552 12.0141 37.7798L13.9651 37.34ZM12.5196 26.7569V26.745H10.5196V26.7569H12.5196ZM11.4898 27.7446C14.8407 27.8445 19.5197 28.1443 24.7728 28.9201L25.065 26.9416C19.7192 26.1521 14.9606 25.8472 11.5494 25.7455L11.4898 27.7446ZM24.7729 28.9202C35.4422 30.4941 47.7173 33.9164 56.4987 41.0118L57.7556 39.4561C48.5586 32.025 35.858 28.5338 25.0648 26.9416L24.7729 28.9202ZM20.9131 86.9837H126.931V84.9837H20.9131V86.9837ZM126.14 85.3718C120.637 92.4854 112.963 98.3734 103.823 102.463L104.64 104.288C114.047 100.079 121.997 93.9968 127.722 86.5955L126.14 85.3718ZM103.823 102.463C94.6832 106.552 84.3926 108.701 73.9223 108.7L73.9221 110.7C84.6613 110.701 95.2317 108.498 104.64 104.288L103.823 102.463ZM73.9221 108.7C63.4519 108.701 53.1612 106.552 44.0215 102.463L43.2047 104.288C52.6127 108.498 63.1831 110.701 73.9223 110.7L73.9221 108.7ZM44.0215 102.463C34.8816 98.3734 27.207 92.4854 21.704 85.3718L20.1221 86.5955C25.8476 93.9968 33.797 100.079 43.2047 104.288L44.0215 102.463ZM11.549 63.2669H136.295V61.2669H11.549V63.2669ZM135.298 62.1951C134.942 67.1408 133.661 72.0197 131.494 76.6672L133.306 77.5125C135.573 72.6513 136.919 67.5352 137.293 62.3387L135.298 62.1951ZM132.4 76.0899H15.4446V78.0899H132.4V76.0899ZM16.3509 76.6672C14.1836 72.0197 12.9025 67.1408 12.5464 62.1951L10.5516 62.3387C10.9257 67.5352 12.2713 72.6513 14.5383 77.5125L16.3509 76.6672Z" fill="#240164" mask="url(#path-1-inside-1_144_1246)"/>
</svg>
