<svg width="156" height="122" viewBox="0 0 156 122" fill="none" xmlns="http://www.w3.org/2000/svg">
<path d="M15.2284 33.8678L15.2302 33.8644C15.6191 33.1623 16.3025 32.5357 17.2194 32.0859C18.1355 31.6365 19.2259 31.3932 20.3486 31.3961H20.3499C22.1079 31.3961 23.6453 31.9963 24.6431 32.8765C25.6369 33.7529 26.0644 34.8663 25.7587 35.9661C25.4088 37.1186 25.324 38.2003 25.324 39.2561C25.324 40.5362 25.8838 42.1965 26.6609 43.9968C27.3432 45.5775 28.2227 47.3293 29.1195 49.1159C29.2542 49.3841 29.3892 49.6531 29.524 49.9224C30.5613 51.9945 31.5886 54.0907 32.3569 56.0428C33.129 58.0043 33.6182 59.7687 33.6182 61.186C33.6182 63.641 32.9784 65.6254 32.2597 67.0835L32.2564 67.0902L32.2533 67.097C31.5326 68.6762 29.5194 69.773 27.0681 69.773C25.2665 69.773 23.7318 69.1716 22.747 68.2879C21.7692 67.4105 21.3503 66.2813 21.6598 65.141C22.0078 63.9941 22.1769 62.6733 22.1769 61.186C22.1769 59.5743 21.6293 57.666 20.8462 55.6766C20.0595 53.6778 19.0132 51.5448 17.977 49.4747C17.8412 49.2035 17.7056 48.9334 17.5708 48.6649C16.6724 46.875 15.8077 45.1523 15.1378 43.6005C14.3598 41.7982 13.8828 40.3084 13.8828 39.2561C13.8828 37.5576 14.1213 35.8316 15.2284 33.8678ZM86.1716 67.0835L86.1683 67.0902L86.1652 67.097C85.4445 68.6762 83.4313 69.773 80.9801 69.773C79.1784 69.773 77.6437 69.1716 76.6589 68.2879C75.6811 67.4105 75.2622 66.2813 75.5717 65.141C75.9197 63.9941 76.0889 62.6733 76.0889 61.186C76.0889 59.5743 75.5412 57.666 74.7582 55.6766C73.9714 53.6778 72.9252 51.5448 71.8889 49.4747C71.7532 49.2036 71.6177 48.9337 71.4829 48.6652C70.5844 46.8752 69.7197 45.1524 69.0497 43.6005C68.2717 41.7982 67.7947 40.3084 67.7947 39.2561C67.7947 37.4984 68.0326 35.8326 69.1401 33.868C69.5384 33.1683 70.2254 32.5451 71.1408 32.0961C72.055 31.6476 73.1407 31.4012 74.2609 31.3961C75.0923 31.4031 75.9081 31.5444 76.6488 31.8071C77.3908 32.0703 78.0323 32.4463 78.5324 32.9003C79.0322 33.354 79.3746 33.8703 79.5515 34.4067C79.7277 34.9411 79.7393 35.4933 79.5868 36.0298L79.584 36.0394L79.5817 36.0491C79.3209 37.1284 79.2359 38.1999 79.2359 39.2561C79.2359 40.5362 79.7957 42.1965 80.5728 43.9968C81.2551 45.5774 82.1346 47.3293 83.0314 49.1158C83.166 49.3841 83.3011 49.6531 83.4359 49.9224C84.4732 51.9945 85.5005 54.0907 86.2689 56.0428C87.0409 58.0043 87.5301 59.7687 87.5301 61.186C87.5301 63.641 86.8903 65.6254 86.1716 67.0835ZM59.2156 67.0835L59.2123 67.0902L59.2093 67.097C58.4885 68.6762 56.4753 69.773 54.0241 69.773C52.2224 69.773 50.6877 69.1716 49.7029 68.2879C48.7252 67.4105 48.3063 66.2813 48.6157 65.1411C48.9637 63.9942 49.1329 62.6733 49.1329 61.186C49.1329 59.589 48.585 57.6879 47.8021 55.7019C47.0154 53.7062 45.9693 51.5715 44.9331 49.4978C44.8026 49.2366 44.6723 48.9765 44.5427 48.7178C43.6387 46.9131 42.7678 45.1745 42.094 43.6095C41.3159 41.8023 40.8388 40.3086 40.8388 39.2561C40.8388 37.4983 41.0767 35.8325 42.1843 33.8678L42.1854 33.8658C42.984 32.4342 44.9391 31.3967 47.3038 31.3961C48.1356 31.403 48.9518 31.5443 49.6929 31.8071C50.4348 32.0703 51.0763 32.4463 51.5765 32.9003C52.0762 33.354 52.4186 33.8703 52.5955 34.4067C52.7717 34.9411 52.7834 35.4933 52.6308 36.0298L52.6281 36.0394L52.6257 36.0491C52.365 37.1284 52.28 38.1999 52.28 39.2561C52.28 40.5362 52.8397 42.1965 53.6169 43.9968C54.2992 45.5774 55.1786 47.3293 56.0754 49.1158C56.2101 49.3841 56.3451 49.6531 56.4799 49.9224C57.5172 51.9945 58.5445 54.0907 59.3129 56.0428C60.085 58.0043 60.5741 59.7687 60.5741 61.186C60.5741 63.641 59.9343 65.6254 59.2156 67.0835ZM145.806 26.582L145.805 26.5819C143.696 26.3784 141.913 25.6102 140.709 24.54C139.507 23.4726 138.893 22.1228 139.039 20.7095L139.041 20.6839V20.6581C139.041 20.2812 139.061 19.9308 139.082 19.6154C139.085 19.5688 139.088 19.5224 139.091 19.4763C139.108 19.2208 139.124 18.9778 139.124 18.7802C139.124 16.9145 138.079 15.2636 136.483 14.0979C134.886 12.9315 132.707 12.2222 130.33 12.2222C125.891 12.2222 122.088 14.6637 121.624 18.105C121.624 18.1059 121.624 18.1069 121.623 18.1078L112.086 83.9529C109.066 104.817 85.6488 121.266 56.9271 121.266C29.1961 121.266 5.8427 105.959 1.51369 86.1624C1.1875 84.5679 1.86599 83.016 3.26555 81.8316C4.66857 80.6443 6.76901 79.8599 9.15279 79.8599H96.573H97.0061L97.0679 79.4313L106.108 16.737C106.108 16.7362 106.108 16.7353 106.108 16.7344C106.787 12.396 109.665 8.49465 113.985 5.66646C118.303 2.83919 124.032 1.10623 130.33 1.10623C137.077 1.10623 143.192 3.12298 147.609 6.34859C152.026 9.57493 154.713 13.982 154.713 18.7802C154.713 19.394 154.651 20.1913 154.58 21.1191C154.569 21.2512 154.559 21.3861 154.549 21.5234C154.477 22.2441 154.203 22.9563 153.732 23.6163L154.139 23.9066L153.732 23.6163C153.26 24.279 152.598 24.8751 151.779 25.3609C150.961 25.8466 150.008 26.2086 148.978 26.4201C147.948 26.6315 146.868 26.6868 145.806 26.582Z" fill="#240164" stroke="#240164"/>
</svg>
