<svg width="188" height="190" viewBox="0 0 188 190" fill="none" xmlns="http://www.w3.org/2000/svg">
<path d="M92.722 1.29141C93.3976 -0.133594 94.5286 -0.11875 95.1895 1.30625L98.8761 8.98047C99.5517 10.45 101.388 11.8156 102.974 12.0086L111.566 13.1961C113.123 13.4039 113.461 14.5023 112.256 15.5859L106.029 21.4195C104.883 22.4438 104.149 24.6703 104.443 26.2438L106.102 34.9867C106.411 36.5602 105.53 37.2281 104.149 36.4414L96.5114 32.0922C95.1601 31.3055 92.8836 31.2906 91.5323 32.107L83.9389 36.4859C82.5582 37.2727 81.677 36.6641 81.9561 35.0609L83.5717 26.2883C83.8801 24.7297 83.1457 22.5328 81.9854 21.4938L75.7139 15.6898C74.5389 14.6063 74.862 13.5078 76.4189 13.3L85.0404 12.068C86.612 11.8602 88.4479 10.4945 89.1382 9.01016L92.722 1.29141Z" fill="#FCC21B"/>
<path d="M167.893 154.598C165.528 155.162 163.031 155.459 160.608 155.444C156.128 155.414 151.663 154.345 147.888 151.852C146.243 150.768 144.055 149.387 143.041 147.621C142.322 146.359 142.674 144.326 144.246 143.762C147.242 142.678 150.297 141.906 152.941 140.066C155.261 138.463 157.127 136.31 158.904 134.128C160.989 131.59 163.604 125.786 159.947 123.366C157.655 121.852 154.336 123.188 151.869 123.411C149.724 123.589 147.58 123.47 145.494 122.995C142.586 122.342 139.81 121.08 137.445 119.27C135.668 117.904 132.334 115.351 132.819 112.738C132.892 112.337 133.113 111.803 133.406 111.536C133.964 111.046 134.949 110.734 135.683 110.512C138.077 109.799 140.603 108.879 142.513 107.202C144.965 105.049 148.858 99.8094 146.625 96.425C145.582 94.8664 143.174 95.0445 141.573 95.0445C139.193 95.0445 136.682 94.718 134.361 94.1836C126.841 92.4469 116.986 87.0586 118.058 77.8406C118.293 75.7477 119.262 76.4453 120.922 76.282C123.287 76.0445 126.165 75.4805 128.163 74.0258C130.204 72.5414 132.628 67.9102 129.852 65.7578C127.59 63.9914 123.228 64.1992 120.584 63.1008C117.426 61.7945 114.459 59.8945 111.786 57.668C106.411 53.2297 102.665 47.4406 98.406 41.5625C97.231 39.9445 95.8357 38.282 94.0145 38.2078C92.1932 38.282 90.7979 39.9297 89.6229 41.5625C85.3635 47.4406 81.6182 53.2297 76.2573 57.668C73.5695 59.8945 70.6173 61.7945 67.4448 63.1008C64.801 64.1844 60.4388 63.9914 58.1769 65.7578C55.401 67.9102 57.8391 72.5266 59.8807 74.0258C61.8782 75.4805 64.757 76.0445 67.1216 76.282C68.7666 76.4453 69.736 75.7477 69.9857 77.8406C71.0579 87.0586 61.2173 92.4617 53.6826 94.1836C51.3619 94.718 48.8651 95.0445 46.4857 95.0445C44.8848 95.0445 42.4613 94.8664 41.4332 96.425C39.186 99.8094 43.0929 105.049 45.5457 107.202C47.4551 108.879 49.9666 109.799 52.3754 110.512C53.1098 110.734 54.0938 111.046 54.6373 111.536C54.9457 111.803 55.1513 112.337 55.2394 112.738C55.7241 115.351 52.3901 117.904 50.6129 119.27C48.2482 121.08 45.4576 122.342 42.5641 122.995C40.4638 123.47 38.3194 123.589 36.1751 123.411C33.7076 123.188 30.3735 121.867 28.0969 123.366C24.4398 125.786 27.0688 131.59 29.1398 134.128C30.917 136.31 32.7823 138.463 35.1176 140.066C37.776 141.906 40.831 142.663 43.8126 143.762C45.3694 144.326 45.7366 146.359 45.0169 147.621C43.9888 149.387 41.8298 150.753 40.1701 151.852C36.3954 154.345 31.9304 155.399 27.4507 155.444C25.0273 155.459 22.5304 155.162 20.1804 154.598C16.5085 153.722 12.4694 156.052 12.9688 160.12C13.6298 165.538 20.0335 170.213 24.5279 172.425C37.3648 178.719 51.3179 180.827 65.4473 178.63C70.2941 177.873 75.2732 177.086 79.9291 175.394C80.3404 175.394 80.9866 175.067 81.3098 174.978C82.8666 174.533 84.4823 174.399 86.0538 173.939C87.3463 173.568 88.5948 173.123 89.8873 172.826C91.9729 172.306 93.4269 171.802 95.6007 172.351C97.3926 172.796 99.0963 173.642 100.785 174.132C103.326 174.889 105.985 174.607 108.452 175.483C113.02 177.101 117.896 177.873 122.655 178.63C136.784 180.827 150.738 178.734 163.574 172.425C168.084 170.213 174.487 165.538 175.148 160.12C175.589 156.052 171.564 153.722 167.893 154.598Z" fill="#757F3F"/>
<path d="M83.5427 73.8328C87.128 73.8328 90.0345 70.8954 90.0345 67.2719C90.0345 63.6484 87.128 60.7109 83.5427 60.7109C79.9573 60.7109 77.0508 63.6484 77.0508 67.2719C77.0508 70.8954 79.9573 73.8328 83.5427 73.8328Z" fill="white"/>
<path d="M112.315 78.0484C112.315 81.6703 109.407 84.6094 105.823 84.6094C102.24 84.6094 99.3315 81.6703 99.3315 78.0484C99.3315 74.4117 102.24 71.4875 105.823 71.4875C109.407 71.4875 112.315 74.4117 112.315 78.0484Z" fill="white"/>
<path d="M101.506 145.038C105.091 145.038 107.997 142.101 107.997 138.477C107.997 134.854 105.091 131.916 101.506 131.916C97.9202 131.916 95.0137 134.854 95.0137 138.477C95.0137 142.101 97.9202 145.038 101.506 145.038Z" fill="white"/>
<path d="M57.2961 169.174C60.8814 169.174 63.7879 166.237 63.7879 162.613C63.7879 158.99 60.8814 156.052 57.2961 156.052C53.7107 156.052 50.8042 158.99 50.8042 162.613C50.8042 166.237 53.7107 169.174 57.2961 169.174Z" fill="white"/>
<path d="M142.014 167.853C142.014 171.475 139.105 174.414 135.522 174.414C131.938 174.414 129.03 171.475 129.03 167.853C129.03 164.216 131.938 161.292 135.522 161.292C139.105 161.292 142.014 164.231 142.014 167.853Z" fill="white"/>
<path d="M86.3333 110.794C84.0714 110.022 80.4436 111.12 78.8133 112.115C76.9186 113.273 78.0496 114.757 77.9908 116.494C77.9321 118.29 78.6811 120.027 78.593 121.823C78.4608 124.955 74.4071 127.048 72.9236 129.393C70.7352 132.896 74.3336 136.087 77.7705 136.132C80.2233 136.177 82.309 134.707 84.3065 133.475C86.0543 132.421 87.8902 131.352 88.9624 129.541C90.0933 127.597 89.9465 125.118 89.7996 122.936C89.6674 120.917 89.3002 118.913 88.889 116.924C88.4924 114.846 88.8008 111.64 86.3333 110.794Z" fill="#ED6C30"/>
<path d="M106.675 175.127C106.631 175.171 105.588 174.726 105.427 174.681C103.826 174.28 102.298 173.85 100.756 173.271C98.597 172.455 96.3205 171.49 94.323 170.391C92.4723 169.382 90.5483 170.881 88.9326 171.668C86.9645 172.618 85.0698 173.761 82.9695 174.37C82.7933 174.414 82.6611 174.503 82.4848 174.563C82.3673 174.607 82.2351 174.622 82.1323 174.681C82.1911 174.785 82.3673 174.83 82.4701 174.889C82.6317 174.993 82.7786 175.097 82.9255 175.201C83.2339 175.409 83.5129 175.646 83.6304 176.017C83.8508 176.67 83.6011 177.709 83.6011 178.377C83.6011 180.708 83.6305 183.023 83.5717 185.354C83.513 188.159 83.9976 189.451 87.0086 189.555C90.5483 189.673 94.088 189.748 97.6276 189.748C98.7439 189.748 99.8748 189.718 100.976 189.733C102.195 189.748 103.077 189.51 103.635 188.931C104.134 188.427 104.369 187.64 104.369 186.527V183.469C104.369 182.326 104.237 181.183 104.193 180.04C104.149 178.793 104.193 177.739 104.869 176.655C105.074 176.329 105.309 176.047 105.603 175.809C105.955 175.542 106.352 175.364 106.675 175.127Z" fill="#855C52"/>
<path d="M73.173 85.8562C73.4521 87.1328 74.9796 88.5133 75.8021 89.4633C80.928 95.5195 90.8715 97.0039 98.1418 98.3102C101.784 98.9633 105.456 99.4086 109.157 99.5125C112.536 99.6164 118.748 101.383 118.881 95.9203C118.925 94.0055 117.676 92.2539 115.767 92.0312C103.635 90.6359 92.5312 90.2055 81.8533 83.5555C80.9427 82.9914 80.2083 82.2047 79.3124 81.6258C78.5652 81.131 77.6735 80.9085 76.7844 80.9948C75.8952 81.0812 75.0617 81.4713 74.4215 82.1008C73.5108 82.9766 72.9233 84.5352 73.173 85.8562ZM131.659 151.644C121.01 151.243 110.332 151.57 99.7133 150.53C94.5874 150.026 89.5349 149.091 84.453 148.245C79.1949 147.354 73.9515 146.226 69.0018 144.207C66.079 143.005 63.2883 141.52 60.674 139.724C59.7927 139.116 59.0877 138.299 58.2212 137.676C57.495 137.146 56.6117 136.882 55.7171 136.928C54.8225 136.974 53.9702 137.327 53.3008 137.928C52.3755 138.759 51.7146 140.303 51.9055 141.609C52.1258 142.901 53.5946 144.355 54.3583 145.35C59.2052 151.644 69.0605 153.588 76.2721 155.236C83.4396 156.869 90.8421 157.982 98.1271 158.932C104.501 159.763 110.905 159.808 117.324 159.867C121.172 159.912 125.049 160.238 128.897 159.986C131.35 159.823 134.317 159.199 135.037 156.379C135.698 153.677 134.346 151.748 131.659 151.644ZM100.139 117.548C98.3621 117.132 97.4221 117.889 97.1871 119.566C96.9815 121.021 96.864 122.654 97.613 123.975C98.4796 125.489 100.477 126.291 102.078 126.647C104.619 127.211 107.131 127.805 109.716 128.22C112.55 128.68 115.4 128.977 118.264 129.096C121.642 129.23 127.84 131.055 128.031 125.593C128.104 123.678 126.856 121.912 124.946 121.674C119.821 121.021 114.665 120.561 109.569 119.641C108.041 119.359 106.528 119.047 105.03 118.676C103.664 118.334 102.489 117.874 101.079 117.711C100.815 117.711 100.492 117.637 100.139 117.548ZM63.1855 104.381C62.6421 104.767 62.1868 105.361 61.9077 106.148C60.953 108.79 62.319 111.135 64.3899 112.709C65.9174 113.881 68.003 115.054 69.8977 115.366C73.5549 115.974 72.0568 113.213 72.5415 110.749C72.6737 110.052 73.0115 109.547 72.894 108.775C72.659 107.246 70.0299 106.237 68.8843 105.598C67.1218 104.634 65.183 102.956 63.1855 104.381Z" fill="#FCC21B"/>
</svg>
