<svg width="53" height="53" viewBox="0 0 53 53" fill="none" xmlns="http://www.w3.org/2000/svg">
<path d="M2.875 2.875H8.125L9.175 8.125M9.175 8.125H50.125L39.625 29.125H13.375M9.175 8.125L13.375 29.125M13.375 29.125L7.35587 35.1441C5.70212 36.7979 6.87288 39.625 9.21175 39.625H39.625M39.625 39.625C38.2326 39.625 36.8973 40.1781 35.9127 41.1627C34.9281 42.1473 34.375 43.4826 34.375 44.875C34.375 46.2674 34.9281 47.6027 35.9127 48.5873C36.8973 49.5719 38.2326 50.125 39.625 50.125C41.0174 50.125 42.3527 49.5719 43.3373 48.5873C44.3219 47.6027 44.875 46.2674 44.875 44.875C44.875 43.4826 44.3219 42.1473 43.3373 41.1627C42.3527 40.1781 41.0174 39.625 39.625 39.625ZM18.625 44.875C18.625 46.2674 18.0719 47.6027 17.0873 48.5873C16.1027 49.5719 14.7674 50.125 13.375 50.125C11.9826 50.125 10.6473 49.5719 9.66269 48.5873C8.67812 47.6027 8.125 46.2674 8.125 44.875C8.125 43.4826 8.67812 42.1473 9.66269 41.1627C10.6473 40.1781 11.9826 39.625 13.375 39.625C14.7674 39.625 16.1027 40.1781 17.0873 41.1627C18.0719 42.1473 18.625 43.4826 18.625 44.875Z" stroke="#4B4B4B" stroke-width="5" stroke-linecap="round" stroke-linejoin="round"/>
</svg>
