<svg width="25" height="25" viewBox="0 0 65 65" fill="none" xmlns="http://www.w3.org/2000/svg">
<path d="M16.4823 64.7701C12.6167 64.5943 10.5168 63.951 9.12013 63.4062C7.26944 62.6857 5.95001 61.8279 4.56103 60.4409C3.17205 59.0539 2.31239 57.7344 1.59568 55.8837C1.05091 54.487 0.407614 52.3871 0.231819 48.5216C0.0386364 44.343 0 43.0893 0 32.5029C0 21.9165 0.0425001 20.6647 0.229887 16.4823C0.405683 12.6167 1.05284 10.5207 1.59375 9.12013C2.31432 7.26944 3.17398 5.95001 4.5591 4.5591C5.94615 3.17205 7.26558 2.31046 9.1182 1.59375C10.5149 1.04898 12.6148 0.405683 16.4804 0.229887C20.6608 0.0386364 21.9165 0 32.499 0C43.0854 0 44.3372 0.0425001 48.5196 0.229887C52.3852 0.405683 54.4812 1.05284 55.8818 1.59375C57.7325 2.31046 59.0519 3.17205 60.4409 4.5591C61.8299 5.94615 62.6857 7.26751 63.4063 9.1182C63.951 10.5149 64.5943 12.6148 64.7701 16.4804C64.9614 20.6628 65 21.9146 65 32.501C65 43.0835 64.9614 44.3392 64.7701 48.5216C64.5943 52.3871 63.9472 54.487 63.4063 55.8837C62.6857 57.7344 61.8279 59.0539 60.4409 60.4409C59.0539 61.8279 57.7325 62.6857 55.8818 63.4062C54.4851 63.951 52.3852 64.5943 48.5196 64.7701C44.3411 64.9614 43.0854 65 32.499 65C21.9165 65 20.6608 64.9633 16.4823 64.7701Z" fill="white"/>
<path d="M51.2985 14.2715C47.7396 12.6422 43.9827 11.4863 40.1234 10.8334C39.5953 11.7774 39.1175 12.7487 38.692 13.7432C34.5812 13.1238 30.4007 13.1238 26.2899 13.7432C25.8641 12.7488 25.3863 11.7775 24.8584 10.8334C20.9968 11.4918 17.2373 12.6505 13.6749 14.28C6.60265 24.7435 4.68547 34.9472 5.64406 45.006C9.78575 48.066 14.4215 50.3932 19.3498 51.8865C20.4595 50.394 21.4414 48.8106 22.2852 47.1532C20.6825 46.5546 19.1357 45.8162 17.6626 44.9463C18.0503 44.6651 18.4295 44.3754 18.7959 44.0942C23.0823 46.11 27.7606 47.1552 32.4973 47.1552C37.234 47.1552 41.9124 46.11 46.1988 44.0942C46.5694 44.3967 46.9486 44.6864 47.332 44.9463C45.8561 45.8176 44.3064 46.5575 42.701 47.1575C43.5437 48.8141 44.5257 50.3961 45.6364 51.8865C50.5689 50.3992 55.2082 48.0731 59.3506 45.0102C60.4753 33.3453 57.4292 23.2354 51.2985 14.2715ZM23.4994 38.8199C20.8281 38.8199 18.6212 36.3957 18.6212 33.4134C18.6212 30.4312 20.7514 27.9857 23.4909 27.9857C26.2303 27.9857 28.4201 30.4312 28.3733 33.4134C28.3264 36.3957 26.2218 38.8199 23.4994 38.8199ZM41.4953 38.8199C38.8198 38.8199 36.6214 36.3957 36.6214 33.4134C36.6214 30.4312 38.7516 27.9857 41.4953 27.9857C44.239 27.9857 46.4118 30.4312 46.3649 33.4134C46.3181 36.3957 44.2177 38.8199 41.4953 38.8199Z" fill="#5865F2"/>
</svg>
