<svg width="25" height="25" viewBox="0 0 65 65" fill="none" xmlns="http://www.w3.org/2000/svg">
<path d="M16.4823 64.7701C12.6167 64.5943 10.5168 63.951 9.12013 63.4062C7.26944 62.6857 5.95001 61.8279 4.56103 60.4409C3.17205 59.0539 2.31239 57.7344 1.59568 55.8837C1.05091 54.487 0.407614 52.3871 0.231819 48.5216C0.0386364 44.343 0 43.0893 0 32.5029C0 21.9165 0.0425001 20.6647 0.229887 16.4823C0.405683 12.6167 1.05284 10.5207 1.59375 9.12013C2.31432 7.26944 3.17398 5.95001 4.5591 4.5591C5.94615 3.17205 7.26558 2.31046 9.1182 1.59375C10.5149 1.04898 12.6148 0.405683 16.4804 0.229887C20.6608 0.0386364 21.9165 0 32.499 0C43.0854 0 44.3372 0.0425001 48.5196 0.229887C52.3852 0.405683 54.4812 1.05284 55.8818 1.59375C57.7325 2.31046 59.0519 3.17205 60.4409 4.5591C61.8299 5.94615 62.6857 7.26751 63.4063 9.1182C63.951 10.5149 64.5943 12.6148 64.7701 16.4804C64.9614 20.6628 65 21.9146 65 32.501C65 43.0835 64.9614 44.3392 64.7701 48.5216C64.5943 52.3871 63.9472 54.487 63.4063 55.8837C62.6857 57.7344 61.8279 59.0539 60.4409 60.4409C59.0539 61.8279 57.7325 62.6857 55.8818 63.4062C54.4851 63.951 52.3852 64.5943 48.5196 64.7701C44.3411 64.9614 43.0854 65 32.499 65C21.9165 65 20.6608 64.9633 16.4823 64.7701Z" fill="white"/>
<path fill-rule="evenodd" clip-rule="evenodd" d="M32.5235 5.41667C16.7853 5.41667 4.0625 18.1401 4.0625 33.8808C4.0625 46.4632 12.2144 57.1139 23.5234 60.8835C24.9373 61.1669 25.4552 60.271 25.4552 59.5174C25.4552 58.8576 25.4086 56.5957 25.4086 54.2389C17.4914 55.9358 15.8427 50.8458 15.8427 50.8458C14.5704 47.547 12.6852 46.6991 12.6852 46.6991C10.0939 44.9554 12.8739 44.9554 12.8739 44.9554C15.7483 45.144 17.2566 47.8772 17.2566 47.8772C19.8007 52.2124 23.9003 50.9875 25.5495 50.2334C25.7849 48.3954 26.5393 47.1231 27.3404 46.4163C21.0259 45.7564 14.3822 43.306 14.3822 32.3725C14.3822 29.2622 15.5124 26.7175 17.3032 24.7384C17.0207 24.0317 16.0309 21.1093 17.5864 17.198C17.5864 17.198 19.9895 16.4439 25.408 20.1198C27.7278 19.4967 30.1203 19.1798 32.5235 19.1771C34.9266 19.1771 37.3764 19.5073 39.6385 20.1198C45.0576 16.4439 47.4607 17.198 47.4607 17.198C49.0162 21.1093 48.0258 24.0317 47.7432 24.7384C49.5813 26.7175 50.6649 29.2622 50.6649 32.3725C50.6649 43.306 44.0212 45.709 37.6595 46.4163C38.6965 47.3116 39.5913 49.0079 39.5913 51.6942C39.5913 55.5113 39.5447 58.5748 39.5447 59.5169C39.5447 60.271 40.0632 61.1669 41.4765 60.8841C52.7854 57.1133 60.9374 46.4632 60.9374 33.8808C60.984 18.1401 48.2146 5.41667 32.5235 5.41667Z" fill="#24292F"/>
</svg>
