<svg width="25" height="25" viewBox="0 0 65 65" fill="none" xmlns="http://www.w3.org/2000/svg">
<path d="M16.4823 64.7701C12.6167 64.5943 10.5168 63.951 9.12013 63.4062C7.26944 62.6857 5.95001 61.8279 4.56103 60.4409C3.17205 59.0539 2.31239 57.7344 1.59568 55.8837C1.05091 54.487 0.407614 52.3871 0.231819 48.5216C0.0386364 44.343 0 43.0893 0 32.5029C0 21.9165 0.0425001 20.6647 0.229887 16.4823C0.405683 12.6167 1.05284 10.5207 1.59375 9.12013C2.31432 7.26944 3.17398 5.95001 4.5591 4.5591C5.94615 3.17205 7.26558 2.31046 9.1182 1.59375C10.5149 1.04898 12.6148 0.405683 16.4804 0.229887C20.6608 0.0386364 21.9165 0 32.499 0C43.0854 0 44.3372 0.0425001 48.5196 0.229887C52.3852 0.405683 54.4812 1.05284 55.8818 1.59375C57.7325 2.31046 59.0519 3.17205 60.4409 4.5591C61.8299 5.94615 62.6857 7.26751 63.4062 9.1182C63.951 10.5149 64.5943 12.6148 64.7701 16.4804C64.9614 20.6628 65 21.9146 65 32.501C65 43.0835 64.9614 44.3392 64.7701 48.5216C64.5943 52.3871 63.9472 54.487 63.4062 55.8837C62.6857 57.7344 61.8279 59.0539 60.4409 60.4409C59.0539 61.8279 57.7325 62.6857 55.8818 63.4062C54.4851 63.951 52.3852 64.5943 48.5196 64.7701C44.3411 64.9614 43.0854 65 32.499 65C21.9165 65 20.6608 64.9633 16.4823 64.7701Z" fill="white"/>
<path d="M59.5833 22.5521L46.6643 32.0504V52.774H55.7309C56.7214 52.7836 57.6769 52.4079 58.3957 51.7263C59.1145 51.0447 59.5403 50.1105 59.5833 49.1208V22.5521Z" fill="#4CAF50"/>
<path d="M5.41667 22.5497L18.3025 32.1144V52.8048H9.26913C8.27307 52.814 7.31281 52.4338 6.59312 51.7451C5.87343 51.0565 5.45127 50.1139 5.41667 49.1184V22.5497Z" fill="#1E88E5"/>
<path d="M46.6642 16.242L32.4831 26.7034L18.3021 16.242V32.0835L32.4831 42.545L46.6642 32.0835V16.242Z" fill="#E53935"/>
<path d="M5.41667 17.6346V22.5497L18.3025 32.1144V16.2398L14.284 13.284C13.3241 12.5701 12.1591 12.1857 10.9629 12.1881C10.2405 12.1793 9.52348 12.3134 8.85312 12.5828C8.18277 12.8522 7.5723 13.2515 7.05684 13.7577C6.54138 14.2639 6.1311 14.867 5.84962 15.5324C5.56813 16.1977 5.42099 16.9122 5.41667 17.6346Z" fill="#C62828"/>
<path d="M59.5833 17.6369V22.5521L46.6643 32.0504L46.6642 16.242L50.716 13.2863C51.6759 12.5724 52.8409 12.1879 54.0371 12.1903C54.7595 12.1816 55.4765 12.3157 56.1469 12.5851C56.8172 12.8545 57.4277 13.2538 57.9432 13.76C58.4586 14.2662 58.8689 14.8693 59.1504 15.5347C59.4319 16.2 59.579 16.9145 59.5833 17.6369Z" fill="#FBC02D"/>
</svg>
