<svg xmlns="http://www.w3.org/2000/svg" width="48" height="45" viewBox="0 0 48 45" fill="none">
<path d="M28.428 38.1406C27.0114 38.4085 25.5728 38.5428 24.1311 38.5417C13.869 38.5417 5.18359 31.7973 2.26172 22.5C3.04838 19.9977 4.26004 17.6496 5.84359 15.5585M19.2682 17.6394L19.2693 17.6382M19.2682 17.6394L28.9917 27.3629M19.2682 17.6394L28.9894 27.3583M19.2693 17.6382C20.5586 16.3495 22.307 15.6256 24.1299 15.6256C25.9535 15.6256 27.7023 16.35 28.9917 17.6394C30.2811 18.9288 31.0055 20.6776 31.0055 22.5011C31.0055 24.3241 30.2816 26.0725 28.9929 27.3618M19.2693 17.6382L11.7332 10.1021M19.2693 17.6382L28.9894 27.3583M28.9929 27.3618L28.9917 27.3629M28.9929 27.3618L36.5313 34.9002M28.9929 27.3618L28.9894 27.3583M28.9917 27.3629L36.5313 34.9002M11.7332 10.1021L3.50609 1.875M11.7332 10.1021C15.4282 7.71776 19.7336 6.45238 24.1311 6.45833C34.3932 6.45833 43.0786 13.2027 46.0005 22.5C44.3872 27.6115 41.0376 31.998 36.5313 34.9002M36.5313 34.9002L44.7561 43.125" stroke="#9EDF6D" stroke-width="3" stroke-linecap="round" stroke-linejoin="round"/>
</svg>