<svg xmlns="http://www.w3.org/2000/svg" width="319" height="319" viewBox="0 0 319 319" fill="none">
<path d="M5 159.5L39.3333 125.167M39.3333 125.167L159.5 5L279.667 125.167M39.3333 125.167V296.833C39.3333 301.386 41.142 305.753 44.3613 308.972C47.5807 312.191 51.9471 314 56.5 314H108M279.667 125.167L314 159.5M279.667 125.167V296.833C279.667 301.386 277.858 305.753 274.639 308.972C271.419 312.191 267.053 314 262.5 314H211M108 314C112.553 314 116.919 312.191 120.139 308.972C123.358 305.753 125.167 301.386 125.167 296.833V228.167C125.167 223.614 126.975 219.247 130.195 216.028C133.414 212.809 137.78 211 142.333 211H176.667C181.22 211 185.586 212.809 188.805 216.028C192.025 219.247 193.833 223.614 193.833 228.167V296.833C193.833 301.386 195.642 305.753 198.861 308.972C202.081 312.191 206.447 314 211 314M108 314H211" stroke="black" stroke-width="10" stroke-linecap="round" stroke-linejoin="round"/>
</svg>