<svg xmlns="http://www.w3.org/2000/svg" width="70" height="64" viewBox="0 0 66 64" fill="none">
<path d="M2 32L8.88889 25.3333M8.88889 25.3333L33 2L57.1111 25.3333M8.88889 25.3333V58.6667C8.88889 59.5507 9.25179 60.3986 9.89774 61.0237C10.5437 61.6488 11.4198 62 12.3333 62H22.6667M57.1111 25.3333L64 32M57.1111 25.3333V58.6667C57.1111 59.5507 56.7482 60.3986 56.1023 61.0237C55.4563 61.6488 54.5802 62 53.6667 62H43.3333M22.6667 62C23.5802 62 24.4563 61.6488 25.1023 61.0237C25.7482 60.3986 26.1111 59.5507 26.1111 58.6667V45.3333C26.1111 44.4493 26.474 43.6014 27.12 42.9763C27.7659 42.3512 28.642 42 29.5556 42H36.4444C37.358 42 38.2341 42.3512 38.88 42.9763C39.526 43.6014 39.8889 44.4493 39.8889 45.3333V58.6667C39.8889 59.5507 40.2518 60.3986 40.8977 61.0237C41.5437 61.6488 42.4198 62 43.3333 62M22.6667 62H43.3333" stroke="#4B4B4B" stroke-width="6" stroke-linecap="round" stroke-linejoin="round"/>
</svg>