<svg xmlns="http://www.w3.org/2000/svg" width="52" height="49" viewBox="0 0 52 49" fill="none">
<path d="M42.4071 1.63792C42.9174 1.1295 43.5307 0.722639 44.2108 0.441397C44.8909 0.160155 45.6238 0.0102376 46.3664 0.000506257C47.109 -0.00922513 47.8462 0.121427 48.5343 0.38474C49.2224 0.648053 49.8475 1.03868 50.3726 1.53354C50.8977 2.0284 51.3123 2.61744 51.5917 3.26585C51.8711 3.91426 52.0098 4.60887 51.9995 5.30864C51.9891 6.0084 51.83 6.69912 51.5316 7.33995C51.2331 7.98079 50.8014 8.55874 50.2618 9.03965L33.9819 24.3806C33.9603 24.4009 33.9432 24.425 33.9315 24.4515C33.9199 24.478 33.9139 24.5064 33.9139 24.5351C33.9139 24.5638 33.9199 24.5922 33.9315 24.6187C33.9432 24.6452 33.9603 24.6693 33.9819 24.6895L50.2618 40.0305C50.7847 40.5152 51.2006 41.0927 51.4855 41.7296C51.7704 42.3664 51.9187 43.0502 51.9218 43.7414C51.9248 44.4325 51.7827 45.1174 51.5034 45.7565C51.2242 46.3957 50.8135 46.9764 50.2949 47.4651C49.7763 47.9539 49.1602 48.3411 48.482 48.6044C47.8038 48.8677 47.077 49.0018 46.3436 48.9991C45.6101 48.9963 44.8845 48.8568 44.2085 48.5885C43.5326 48.3202 42.9197 47.9284 42.4052 47.4358L26.1253 32.0948C26.1038 32.0744 26.0782 32.0583 26.0501 32.0473C26.022 32.0363 25.9918 32.0307 25.9614 32.0307C25.9309 32.0307 25.9008 32.0363 25.8726 32.0473C25.8445 32.0583 25.819 32.0744 25.7975 32.0948L9.51751 47.4358C9.00317 47.9285 8.39039 48.3204 7.71451 48.5889C7.03863 48.8573 6.31304 48.9971 5.57957 49C4.84611 49.0028 4.11929 48.8689 3.44105 48.6058C2.76281 48.3426 2.14657 47.9556 1.62786 47.4669C1.10916 46.9782 0.698266 46.3976 0.418879 45.7586C0.139492 45.1195 -0.00285641 44.4346 4.3429e-05 43.7435C0.00294327 43.0523 0.151035 42.3685 0.435775 41.7316C0.720515 41.0946 1.13627 40.5171 1.65906 40.0323L17.939 24.6913C17.9606 24.671 17.9777 24.647 17.9893 24.6205C18.001 24.5939 18.007 24.5655 18.007 24.5368C18.007 24.5081 18.001 24.4797 17.9893 24.4532C17.9777 24.4267 17.9606 24.4026 17.939 24.3824L1.65906 9.04139C0.630942 8.0569 0.0573067 6.72946 0.0631018 5.34823C0.068897 3.967 0.653653 2.64387 1.69 1.66707C2.72634 0.690271 4.13031 0.138929 5.59608 0.133142C7.06185 0.127356 8.47067 0.667594 9.51566 1.63618L25.7956 16.9772C25.8171 16.9975 25.8427 17.0136 25.8708 17.0246C25.8989 17.0356 25.9291 17.0413 25.9595 17.0413C25.99 17.0413 26.0201 17.0356 26.0482 17.0246C26.0764 17.0136 26.1019 16.9975 26.1234 16.9772L42.4071 1.63792Z" fill="#1E1E1E"/>
</svg>