<svg xmlns="http://www.w3.org/2000/svg" width="50" height="40" viewBox="0 0 50 39" fill="none">
<path d="M27.4444 28.9286V5.35714C27.4444 4.73199 27.1869 4.13244 26.7285 3.69039C26.2701 3.24834 25.6483 3 25 3H5.44444C4.79614 3 4.17438 3.24834 3.71596 3.69039C3.25754 4.13244 3 4.73199 3 5.35714V28.9286C3 29.5537 3.25754 30.1533 3.71596 30.5953C4.17438 31.0374 4.79614 31.2857 5.44444 31.2857H7.88889M27.4444 28.9286C27.4444 29.5537 27.1869 30.1533 26.7285 30.5953C26.2701 31.0374 25.6483 31.2857 25 31.2857H17.6667M27.4444 28.9286V10.0714C27.4444 9.44628 27.702 8.84673 28.1604 8.40468C28.6188 7.96263 29.2406 7.71429 29.8889 7.71429H36.2102C36.8585 7.71442 37.4801 7.96285 37.9384 8.40493L46.2838 16.4522C46.7422 16.8942 46.9999 17.4936 47 18.1187V28.9286C47 29.5537 46.7425 30.1533 46.284 30.5953C45.8256 31.0374 45.2039 31.2857 44.5556 31.2857H42.1111M27.4444 28.9286C27.4444 29.5537 27.702 30.1533 28.1604 30.5953C28.6188 31.0374 29.2406 31.2857 29.8889 31.2857H32.3333M7.88889 31.2857C7.88889 32.536 8.40397 33.7351 9.32081 34.6192C10.2377 35.5033 11.4812 36 12.7778 36C14.0744 36 15.3179 35.5033 16.2347 34.6192C17.1516 33.7351 17.6667 32.536 17.6667 31.2857M7.88889 31.2857C7.88889 30.0354 8.40397 28.8363 9.32081 27.9522C10.2377 27.0681 11.4812 26.5714 12.7778 26.5714C14.0744 26.5714 15.3179 27.0681 16.2347 27.9522C17.1516 28.8363 17.6667 30.0354 17.6667 31.2857M42.1111 31.2857C42.1111 32.536 41.596 33.7351 40.6792 34.6192C39.7623 35.5033 38.5188 36 37.2222 36C35.9256 36 34.6821 35.5033 33.7653 34.6192C32.8484 33.7351 32.3333 32.536 32.3333 31.2857M42.1111 31.2857C42.1111 30.0354 41.596 28.8363 40.6792 27.9522C39.7623 27.0681 38.5188 26.5714 37.2222 26.5714C35.9256 26.5714 34.6821 27.0681 33.7653 27.9522C32.8484 28.8363 32.3333 30.0354 32.3333 31.2857" stroke="white" stroke-width="2" stroke-linecap="round" stroke-linejoin="round"/>
</svg>