<svg width="39" height="39" viewBox="0 0 39 39" fill="none" xmlns="http://www.w3.org/2000/svg">
<path d="M28.5974 25.1514H26.7903L26.1498 24.5341C27.5794 22.8743 28.6242 20.9191 29.2095 18.8086C29.7948 16.6981 29.906 14.4844 29.5353 12.3259C28.4602 5.97025 23.1531 0.894906 16.748 0.117601C14.4962 -0.167108 12.2091 0.0667826 10.0616 0.801376C7.91418 1.53597 5.96333 2.75179 4.35837 4.35581C2.75341 5.95984 1.53687 7.90954 0.801846 10.0557C0.0668218 12.2019 -0.167206 14.4877 0.11767 16.7382C0.895431 23.1395 5.97375 28.4435 12.3331 29.518C14.4929 29.8885 16.7079 29.7773 18.8196 29.1924C20.9314 28.6074 22.8877 27.5632 24.5485 26.1345L25.1661 26.7746V28.5807L34.8882 38.297C35.826 39.2343 37.3587 39.2343 38.2966 38.297C39.2345 37.3597 39.2345 35.8279 38.2966 34.8906L28.5974 25.1514ZM14.8723 25.1514C9.1763 25.1514 4.57836 20.5561 4.57836 14.8635C4.57836 9.17092 9.1763 4.57567 14.8723 4.57567C20.5682 4.57567 25.1661 9.17092 25.1661 14.8635C25.1661 20.5561 20.5682 25.1514 14.8723 25.1514Z" fill="#4B4B4B"/>
</svg>
