<svg xmlns="http://www.w3.org/2000/svg" width="49" height="37" viewBox="0 0 49 37" fill="none">
<path d="M29.5021 23.5003C30.8287 22.1741 31.574 20.3755 31.574 18.5C31.574 16.6245 30.8287 14.8259 29.5021 13.4997C28.1754 12.1736 26.3761 11.4286 24.5 11.4286C22.6239 11.4286 20.8246 12.1736 19.4979 13.4997C18.1713 14.8259 17.426 16.6245 17.426 18.5C17.426 20.3755 18.1713 22.1741 19.4979 23.5003C20.8246 24.8264 22.6239 25.5714 24.5 25.5714C26.3761 25.5714 28.1754 24.8264 29.5021 23.5003Z" stroke="#9EDF6D" stroke-width="3" stroke-linecap="round" stroke-linejoin="round"/>
<path d="M2 18.5C5.00409 8.93707 13.9433 2 24.5 2C35.0591 2 43.9959 8.93707 47 18.5C43.9959 28.0629 35.0591 35 24.5 35C13.9433 35 5.00409 28.0629 2 18.5Z" stroke="#9EDF6D" stroke-width="3" stroke-linecap="round" stroke-linejoin="round"/>
</svg>