<svg width="25" height="25" viewBox="0 0 65 65" fill="none" xmlns="http://www.w3.org/2000/svg">
<path d="M16.4823 64.7701C12.6167 64.5943 10.5168 63.951 9.12013 63.4062C7.26944 62.6857 5.95001 61.8279 4.56103 60.4409C3.17205 59.0539 2.31239 57.7344 1.59568 55.8837C1.05091 54.487 0.407614 52.3871 0.231819 48.5216C0.0386364 44.343 0 43.0893 0 32.5029C0 21.9165 0.0425001 20.6647 0.229887 16.4823C0.405683 12.6167 1.05284 10.5207 1.59375 9.12013C2.31432 7.26944 3.17398 5.95001 4.5591 4.5591C5.94615 3.17205 7.26558 2.31046 9.1182 1.59375C10.5149 1.04898 12.6148 0.405683 16.4804 0.229887C20.6608 0.0386364 21.9165 0 32.499 0C43.0854 0 44.3372 0.0425001 48.5196 0.229887C52.3852 0.405683 54.4812 1.05284 55.8818 1.59375C57.7325 2.31046 59.0519 3.17205 60.4409 4.5591C61.8299 5.94615 62.6857 7.26751 63.4062 9.1182C63.951 10.5149 64.5943 12.6148 64.7701 16.4804C64.9614 20.6628 65 21.9146 65 32.501C65 43.0835 64.9614 44.3392 64.7701 48.5216C64.5943 52.3871 63.9472 54.487 63.4062 55.8837C62.6857 57.7344 61.8279 59.0539 60.4409 60.4409C59.0539 61.8279 57.7325 62.6857 55.8818 63.4062C54.4851 63.951 52.3852 64.5943 48.5196 64.7701C44.3411 64.9614 43.0854 65 32.499 65C21.9165 65 20.6608 64.9633 16.4823 64.7701Z" fill="#25A3E1"/>
<path fill-rule="evenodd" clip-rule="evenodd" d="M8.76797 29.6763C21.8542 23.9432 30.5804 20.1635 34.9465 18.3374C47.4128 13.1234 50.0032 12.2177 51.6916 12.1878C52.0629 12.1812 52.8932 12.2738 53.4311 12.7126C53.8852 13.0832 54.0101 13.5837 54.0699 13.935C54.1297 14.2864 54.2042 15.0867 54.145 15.712C53.4694 22.8495 50.5463 40.1704 49.0592 48.1646C48.43 51.5472 47.191 52.6814 45.9914 52.7924C43.3846 53.0336 41.4051 51.06 38.8803 49.3958C34.9294 46.7916 32.6975 45.1704 28.8625 42.6292C24.4305 39.6923 27.3035 38.0782 29.8293 35.4402C30.4903 34.7499 41.976 24.2447 42.1983 23.2917C42.2261 23.1725 42.2519 22.7282 41.9895 22.4936C41.727 22.2591 41.3396 22.3393 41.0601 22.4031C40.6638 22.4935 34.3522 26.6884 22.1254 34.9877C20.3339 36.2247 18.7112 36.8275 17.2573 36.7959C15.6545 36.7611 12.5714 35.8846 10.2794 35.1354C7.46821 34.2165 5.23392 33.7307 5.42848 32.1702C5.52981 31.3573 6.64298 30.526 8.76797 29.6763Z" fill="white"/>
</svg>
