<svg width="43" height="54" viewBox="0 0 43 54" fill="none" xmlns="http://www.w3.org/2000/svg">
<path d="M28.9751 21.2091C30.9577 19.2088 32.0714 16.4956 32.0714 13.6667C32.0714 10.8377 30.9577 8.12458 28.9751 6.12419C26.9926 4.12381 24.3037 3 21.5 3C18.6963 3 16.0074 4.12381 14.0249 6.12419C12.0423 8.12458 10.9286 10.8377 10.9286 13.6667C10.9286 16.4956 12.0423 19.2088 14.0249 21.2091C16.0074 23.2095 18.6963 24.3333 21.5 24.3333C24.3037 24.3333 26.9926 23.2095 28.9751 21.2091Z" stroke="#4B4B4B" stroke-width="5" stroke-linecap="round" stroke-linejoin="round"/>
<path d="M8.41852 37.8007C11.8879 34.3 16.5935 32.3333 21.5 32.3333C26.4065 32.3333 31.1121 34.3 34.5815 37.8007C38.0509 41.3014 40 46.0493 40 51H3C3 46.0493 4.9491 41.3014 8.41852 37.8007Z" stroke="#4B4B4B" stroke-width="5" stroke-linecap="round" stroke-linejoin="round"/>
</svg>
